<?xml version="1.0" encoding="UTF-8"?>
<svg width="80px" height="80px" viewBox="0 0 80 80" version="1.1" xmlns="http://www.w3.org/2000/svg" xmlns:xlink="http://www.w3.org/1999/xlink">
    <title>icon/discovery</title>
    <defs>
        <linearGradient x1="0.00212808381%" y1="0%" x2="99.9978719%" y2="100%" id="linearGradient-1">
            <stop stop-color="#665DCD" offset="0%"></stop>
            <stop stop-color="#5FA4E6" offset="44.7624153%"></stop>
            <stop stop-color="#D2AB67" offset="100%"></stop>
        </linearGradient>
    </defs>
    <g id="icon/discovery" stroke="none" stroke-width="1" fill="none" fill-rule="evenodd">
        <path d="M48.7252,0 C57.0732,0 64.9209,3.25 70.8232,9.1523 C76.7255,15.0513 79.9755,22.8986 79.9755,31.2463 C79.9755,39.5943 76.7255,47.4419 70.8232,53.3403 C64.7332,59.4301 56.7292,62.477 48.7292,62.477 C42.4872,62.477 36.2491,60.6137 30.9132,56.9067 L30.9132,56.9067 L26.6866,61.1333 C27.1632,62.5943 26.839,64.2622 25.6788,65.4224 L25.6788,65.4224 L13.4248,77.6764 C11.8935,79.21158 9.8779,79.977202 7.8623,79.977202 C5.8467,79.977202 3.835,79.2116 2.2998,77.6764 C-0.7666,74.61 -0.7666,69.6178 2.2998,66.5514 L2.2998,66.5514 L14.5498,54.3014 C15.71,53.14126 17.378,52.81704 18.8389,53.2936 L18.8389,53.2936 L23.0655,49.067 C14.6049,36.891 15.7879,19.997 26.6319,9.153 C32.5309,3.2507 40.3782,0 48.7259,0 Z M17.5344,55.06336 C16.968,55.06336 16.39769,55.28211 15.968,55.7118 L15.968,55.7118 L3.714,67.9658 C1.4249,70.2549 1.4249,73.9736 3.714,76.2627 C6.0031,78.5518 9.7218,78.5518 12.0109,76.2627 L12.0109,76.2627 L24.2649,64.00869 C25.12818,63.14539 25.12818,61.74308 24.2649,60.87589 L24.2649,60.87589 L19.0969,55.70789 C18.6672,55.2782 18.1008,55.06336 17.5344,55.06336 Z M69.4097,10.5676 C58.0077,-0.8344 39.4527,-0.8344 28.0467,10.5676 C16.6447,21.9696 16.6447,40.5286 28.0467,51.9306 C39.4527,63.3326 58.0077,63.3326 69.4097,51.9306 C80.8117,40.52861 80.8117,21.96961 69.4097,10.5676 Z M24.2727,50.6884 L20.5891,54.372 L25.6047,59.3876 L29.2922,55.7079 C28.3743,54.9774 27.48366,54.19226 26.636,53.3446 C25.7844,52.4931 25.00317,51.60637 24.2727,50.6884 L24.2727,50.6884 Z M31.7539,14.2747 C41.1129,4.9153 56.3436,4.9114 65.7069,14.2747 C75.0663,23.6337 75.0663,38.8643 65.7069,48.2237 C61.0269,52.9034 54.8783,55.2432 48.7299,55.2432 C42.5809,55.2432 36.4326,52.9034 31.7529,48.2237 C22.3935,38.8647 22.3935,23.6341 31.7529,14.2747 L31.7529,14.2747 Z M48.7289,9.2551 C43.0927,9.2551 37.456,11.3996 33.1669,15.6887 C24.5888,24.2667 24.5888,38.2316 33.1669,46.8097 C41.7449,55.3878 55.7059,55.3878 64.2879,46.8097 L64.2879,46.8097 C72.869,38.2317 72.869,24.2668 64.2909,15.6887 C59.9989,11.3996 54.3656,9.2551 48.7289,9.2551 Z M51.24886,16.02428 C51.47932,15.85631 51.76448,15.79381 52.04573,15.85631 C53.90513,16.25481 55.65903,16.98131 57.26453,18.02041 C57.50281,18.17666 57.66687,18.42275 57.70984,18.704 C57.75281,18.98135 57.67859,19.27041 57.4989,19.48916 C56.8153,20.33286 56.8778,21.55553 57.65124,22.32506 C58.42074,23.09849 59.63948,23.1649 60.48714,22.4774 C60.70589,22.29771 60.99496,22.21958 61.2723,22.26646 C61.55355,22.31333 61.80355,22.47349 61.95589,22.71177 C62.99499,24.31727 63.72155,26.07117 64.11999,27.93057 C64.17858,28.20792 64.11999,28.49698 63.95202,28.72745 C63.78796,28.95401 63.53015,29.10245 63.2489,29.1337 C62.16692,29.247 61.35051,30.1572 61.3427,31.247 C61.3427,32.3369 62.163,33.24702 63.245,33.3603 C63.52624,33.38764 63.78015,33.53608 63.94812,33.76655 C64.11609,33.99702 64.17469,34.28609 64.11609,34.56343 C63.71759,36.42283 62.99109,38.17673 61.95199,39.78223 C61.79574,40.02051 61.54965,40.18458 61.2684,40.22754 C60.99105,40.27441 60.70199,40.19629 60.48324,40.0166 C59.63564,39.333 58.42078,39.39941 57.64734,40.16894 C56.87781,40.94234 56.81141,42.16108 57.495,43.00874 C57.67469,43.22749 57.75281,43.51265 57.70594,43.7939 C57.65907,44.07515 57.49891,44.32515 57.26063,44.47749 C55.65513,45.51659 53.90123,46.24315 52.04183,46.64159 C51.97151,46.65722 51.9012,46.66503 51.83089,46.66503 C51.62386,46.66503 51.41683,46.59862 51.24495,46.47362 C51.01839,46.30956 50.86995,46.05175 50.8387,45.7705 C50.7254,44.68461 49.8153,43.8682 48.7254,43.8682 C47.6355,43.8682 46.72538,44.6885 46.6121,45.7705 C46.58476,46.05174 46.43632,46.30565 46.20585,46.47362 C45.97538,46.64159 45.68632,46.70409 45.41288,46.64159 C43.55348,46.24309 41.79958,45.51659 40.19408,44.47749 C39.9558,44.32124 39.79174,44.07515 39.74877,43.7939 C39.7058,43.51655 39.78002,43.22749 39.95971,43.00874 C40.64331,42.16114 40.5769,40.94238 39.80737,40.16894 C39.03397,39.39941 37.81523,39.33301 36.96757,40.0166 C36.74882,40.19629 36.45975,40.27442 36.18241,40.22754 C35.90116,40.18067 35.65116,40.02051 35.49882,39.78223 C34.45972,38.17673 33.73316,36.42283 33.33472,34.56343 C33.27613,34.28608 33.33472,33.99702 33.50269,33.76655 C33.66675,33.53999 33.92456,33.39155 34.20581,33.3603 C35.2917,33.247 36.10811,32.3408 36.10811,31.247 C36.10811,30.1571 35.29171,29.24698 34.20581,29.1337 C33.92457,29.10636 33.67066,28.95792 33.50269,28.72745 C33.33472,28.49698 33.27613,28.20791 33.33472,27.93057 C33.73322,26.07117 34.45972,24.31727 35.49882,22.71177 C35.65507,22.47349 35.90116,22.30943 36.18241,22.26646 C36.45976,22.21959 36.74882,22.29771 36.96757,22.4774 C37.81517,23.161 39.03784,23.0985 39.80737,22.32506 C40.5769,21.55556 40.6433,20.33682 39.95971,19.48916 C39.78002,19.27041 39.7019,18.98525 39.74877,18.704 C39.79564,18.42275 39.9558,18.17275 40.19408,18.02041 C41.79958,16.98131 43.55348,16.25475 45.41288,15.85631 C45.69414,15.79772 45.97929,15.85631 46.20976,16.02428 C46.43632,16.18834 46.58476,16.44615 46.61601,16.7274 C46.72931,17.81329 47.63551,18.6297 48.72931,18.6297 C49.81921,18.6297 50.72933,17.8133 50.84261,16.7274 C50.86995,16.44616 51.01839,16.19225 51.24886,16.02428 Z M52.56139,18.04389 C51.95209,19.57509 50.45989,20.62979 48.73329,20.62979 C47.00289,20.62979 45.51457,19.57509 44.90129,18.04389 C43.92859,18.32518 42.99501,18.7119 42.10439,19.20409 C42.75278,20.71579 42.44038,22.51649 41.22158,23.73529 C39.99888,24.95404 38.20198,25.26654 36.68638,24.6181 C36.19806,25.5088 35.80743,26.44234 35.52618,27.415 C37.05738,28.0282 38.11208,29.5204 38.11208,31.247 C38.11208,32.9774 37.05738,34.46572 35.52618,35.079 C35.80747,36.0517 36.19419,36.98528 36.68638,37.8759 C38.20208,37.23141 40.00278,37.53991 41.22158,38.75871 C42.44033,39.98141 42.75283,41.77831 42.10439,43.29391 C42.99109,43.78223 43.92863,44.17286 44.90129,44.45411 C45.51449,42.92291 47.00669,41.86821 48.73329,41.86821 C50.45979,41.86821 51.94811,42.92291 52.56139,44.45411 C53.53409,44.17282 54.46767,43.7861 55.35829,43.29391 C54.7099,41.77821 55.0224,39.97746 56.2411,38.75871 C57.4598,37.53996 59.2606,37.22746 60.7723,37.8759 C61.26062,36.9892 61.65125,36.05166 61.9325,35.079 C60.4052,34.4658 59.35051,32.9736 59.3466,31.2431 C59.3466,29.5166 60.4013,28.02828 61.9325,27.415 C61.65121,26.4423 61.26449,25.50872 60.7723,24.6181 C59.2606,25.26649 57.45985,24.95399 56.2411,23.73529 C55.02235,22.51659 54.70985,20.71969 55.35829,19.20409 C54.47159,18.71577 53.53405,18.32514 52.56139,18.04389 Z M48.7299,23.8717 C52.7963,23.8717 56.1049,27.1803 56.1049,31.2467 C56.1049,35.3131 52.7963,38.6217 48.7299,38.6217 C44.6635,38.6217 41.3549,35.3131 41.3549,31.2467 C41.3549,27.1803 44.6635,23.8717 48.7299,23.8717 Z M48.7299,25.8757 C45.769,25.8757 43.3549,28.2859 43.3549,31.2507 C43.3549,34.2116 45.7651,36.6257 48.7299,36.6257 C51.6947,36.6257 54.1049,34.2116 54.1049,31.2507 C54.1049,28.2859 51.6947,25.8757 48.7299,25.8757 Z" id="Combined-Shape" fill="url(#linearGradient-1)"></path>
    </g>
</svg>