<?xml version="1.0" encoding="UTF-8"?>
<svg width="80px" height="80px" viewBox="0 0 80 80" version="1.1" xmlns="http://www.w3.org/2000/svg" xmlns:xlink="http://www.w3.org/1999/xlink">
    <title>icon/focuse</title>
    <defs>
        <linearGradient x1="8.3671875%" y1="0%" x2="91.6328125%" y2="100%" id="linearGradient-1">
            <stop stop-color="#665DCD" offset="0%"></stop>
            <stop stop-color="#5FA4E6" offset="44.7624153%"></stop>
            <stop stop-color="#D2AB67" offset="100%"></stop>
        </linearGradient>
    </defs>
    <g id="icon/focuse" stroke="none" stroke-width="1" fill="none" fill-rule="evenodd">
        <path d="M35.749695,53.4442596 C37.1135416,53.4442596 38.2222906,54.553827 38.2222906,55.9187069 L38.2222906,77.5255527 C38.217647,78.8904207 37.10891,80 35.749695,80 L25.8638255,80 C24.4999789,80 23.3912299,78.8904326 23.3912299,77.5255527 L23.3912299,55.9187069 C23.3912299,54.5538388 24.499967,53.4442596 25.8638255,53.4442596 L35.749695,53.4442596 Z M55.140818,19.9762301 C56.5046647,19.9762301 57.6134136,21.0857975 57.6134136,22.4506774 L57.6134136,77.5255527 C57.6087701,78.8904207 56.500033,80 55.1361864,80 L45.250305,80 C43.8864584,80 42.7777094,78.8904326 42.7777094,77.5255527 L42.782353,22.4506774 C42.782353,21.0858094 43.89109,19.9762301 45.2549486,19.9762301 L55.140818,19.9762301 Z M74.5274044,43.7924887 C75.8912511,43.7924887 77,44.9020561 77,46.2669361 L77,77.5255527 C76.9953565,78.8904207 75.8866194,80 74.5274044,80 L64.641535,80 C63.2776883,80 62.1689394,78.8904326 62.1689394,77.5255527 L62.1689394,46.2669361 C62.1689394,44.902068 63.2776764,43.7924887 64.641535,43.7924887 L74.5274044,43.7924887 Z M16.3631086,36.8243404 C17.7269552,36.8243404 18.8357042,37.9339078 18.8357042,39.2987877 L18.8357042,77.5255527 C18.8310606,78.8904207 17.7223236,80 16.3584769,80 L6.47259559,80 C5.10874891,80 4,78.8904326 4,77.5255527 L4.00464354,39.2987877 C4.00464354,37.9339197 5.11338058,36.8243404 6.47723913,36.8243404 L16.3631086,36.8243404 Z M16.358465,37.9664844 L6.47259559,37.9664844 C5.73961707,37.9664844 5.14117056,38.5653791 5.14117056,39.2989066 L5.14117056,77.5256715 C5.14117056,78.259199 5.73961707,78.8580937 6.47259559,78.8580937 L16.358465,78.8580937 C17.0914435,78.8580937 17.6898901,78.259199 17.6898901,77.5256715 L17.6898901,39.2989066 C17.6898901,38.5653791 17.0914435,37.9664844 16.358465,37.9664844 Z M35.749695,54.5864036 L25.8638255,54.5864036 C25.130847,54.5864036 24.5324005,55.1852983 24.5324005,55.9188258 L24.5324005,77.5256715 C24.5324005,78.259199 25.130847,78.8580937 25.8638255,78.8580937 L35.749695,78.8580937 C36.4826735,78.8580937 37.08112,78.259199 37.08112,77.5256715 L37.08112,55.9188258 C37.08112,55.1852983 36.4826735,54.5864036 35.749695,54.5864036 Z M55.1361745,21.1183741 L45.250305,21.1183741 C44.5173265,21.1183741 43.91888,21.7172688 43.91888,22.4507963 L43.91888,77.5256715 C43.91888,78.259199 44.5173265,78.8580937 45.250305,78.8580937 L55.1361745,78.8580937 C55.869153,78.8580937 56.4675995,78.259199 56.4675995,77.5256715 L56.4675995,22.4507963 C56.4675995,21.7172688 55.869153,21.1183741 55.1361745,21.1183741 Z M74.5274044,44.9346328 L64.641535,44.9346328 C63.9085565,44.9346328 63.3101099,45.5335275 63.3101099,46.2670549 L63.3101099,77.5256715 C63.3101099,78.259199 63.9085565,78.8580937 64.641535,78.8580937 L74.5274044,78.8580937 C75.2603829,78.8580937 75.8588294,78.259199 75.8588294,77.5256715 L75.8588294,46.2670549 C75.8588294,45.5335275 75.2603829,44.9346328 74.5274044,44.9346328 Z M50.1957337,0 C52.1859238,0 53.8096186,1.62027573 53.8096186,3.6165914 C53.8077946,4.40094945 53.5555852,5.12842448 53.1289288,5.72217184 L67.1248933,19.5932488 C67.7698714,18.993588 68.6335517,18.6260994 69.5822132,18.6260994 C71.5724033,18.6260994 73.1960981,20.2463751 73.1960981,22.2426908 C73.1960981,24.2390064 71.577035,25.8592821 69.5822132,25.8592821 C67.5920232,25.8592821 65.9683283,24.2390064 65.9683283,22.2426908 C65.9683283,21.6090472 66.132204,21.0125268 66.419919,20.4936435 L52.3252519,6.53447968 C51.727686,6.97348617 50.991367,7.23318279 50.1957337,7.23318279 C49.5824047,7.23318279 49.0038827,7.07930114 48.4969637,6.80795445 L33.7887344,26.2912692 C34.1857811,26.8716568 34.4183887,27.5733808 34.4183887,28.3289755 C34.4183887,30.3252912 32.7946938,31.9455669 30.8045038,31.9455669 C28.8143137,31.9455669 27.1906189,30.3252912 27.1906189,28.3289755 C27.1906189,27.9906766 27.2373306,27.6629593 27.3246611,27.3519894 L13.9005963,17.080977 C13.2527275,17.6959912 12.3786059,18.073449 11.4180243,18.073449 C9.42783423,18.073449 7.80413938,16.4531733 7.80413938,14.4568576 C7.80413938,12.4651771 9.42320257,10.8402662 11.4180243,10.8402662 C13.4082143,10.8402662 15.0319092,12.460542 15.0319092,14.4568576 C15.0304612,15.0793647 14.8720336,15.6653068 14.5943236,16.1769575 L27.815661,26.2982528 C28.4662755,25.3422104 29.5625664,24.7123841 30.8045038,24.7123841 C31.6261705,24.7123841 32.3853674,24.9885635 32.993622,25.4533621 L47.5886674,6.11856437 C46.9656068,5.46876044 46.5818488,4.58711417 46.5818488,3.6165914 C46.5818488,1.62491086 48.200912,0 50.1957337,0 Z M30.8045038,25.8591633 C29.4406571,25.8591633 28.3319082,26.9687307 28.3319082,28.3336106 C28.3319082,29.6984787 29.4406452,30.808058 30.8045038,30.808058 C32.1683505,30.808058 33.2770994,29.6984906 33.2770994,28.3336106 C33.2770994,26.9687426 32.1683623,25.8591633 30.8045038,25.8591633 Z M69.5822132,19.7728785 C68.2183666,19.7728785 67.1096177,20.8824459 67.1096177,22.2473259 C67.1096177,23.6122058 68.2183547,24.7217732 69.5822132,24.7217732 C70.9460599,24.7217732 72.0548088,23.6122058 72.0548088,22.2473259 C72.0548088,20.8824459 70.9460718,19.7728785 69.5822132,19.7728785 Z M11.4180243,11.9870454 C10.0541776,11.9870454 8.94542869,13.0966128 8.94542869,14.4614928 C8.94542869,15.8263608 10.0541657,16.9359401 11.4180243,16.9359401 C12.781871,16.9359401 13.8906199,15.8263727 13.8906199,14.4614928 C13.8859763,13.0966247 12.7772393,11.9870454 11.4180243,11.9870454 Z M50.1957337,1.14214405 C48.8318871,1.14214405 47.7231381,2.25171143 47.7231381,3.6165914 C47.7231381,4.98145947 48.8318752,6.09103874 50.1957337,6.09103874 C50.8771519,6.09103874 51.4948902,5.8140577 51.9424789,5.36664033 C51.9438476,5.36240105 51.9463245,5.35987605 51.9488301,5.35736867 L51.9593191,5.34964438 C52.3976735,4.90297086 52.6683293,4.2909432 52.6683293,3.6165914 C52.6636977,2.25172332 51.5595923,1.14214405 50.1957337,1.14214405 Z" id="Combined-Shape" fill="url(#linearGradient-1)"></path>
    </g>
</svg>