<?xml version="1.0" encoding="UTF-8"?>
<svg width="28px" height="28px" viewBox="0 0 28 28" version="1.1" xmlns="http://www.w3.org/2000/svg" xmlns:xlink="http://www.w3.org/1999/xlink">
    <title>icon/leading-market-makers</title>
    <g id="icon/leading-market-makers" stroke="none" stroke-width="1" fill="none" fill-rule="evenodd">
        <path d="M5.02578139,14.3735052 L0.546896704,14.3735052 C0.24479545,14.3735052 0,14.6143893 0,14.9116636 L0,26.4618416 C0,26.7591159 0.24479545,27 0.546896704,27 L5.02578139,27 C5.32788264,27 5.57267809,26.7591159 5.57267809,26.4618416 L5.57267809,14.9116636 C5.57267809,14.6143893 5.32788264,14.3735052 5.02578139,14.3735052 Z M4.47888468,25.9236833 L1.09379341,25.9236833 L1.09379341,15.4495155 L4.47888468,15.4495155 L4.47888468,25.9236833 Z M11.9090183,8.89906159 L7.43013364,8.89906159 C7.12803238,8.89906159 6.88323693,9.13994569 6.88323693,9.43721996 L6.88323693,26.4618416 C6.88323693,26.7591159 7.12803238,27 7.43013364,27 L11.9090183,27 C12.2111196,27 12.455915,26.7591159 12.455915,26.4618416 L12.455915,9.43721996 C12.455915,9.13994569 12.2111196,8.89906159 11.9090183,8.89906159 Z M11.3621216,25.9236833 L7.97703034,25.9236833 L7.97703034,9.97537834 L11.3621216,9.97537834 L11.3621216,25.9236833 Z M18.7922553,11.5435767 L14.3133706,11.5435767 C14.0112693,11.5435767 13.7664739,11.7844608 13.7664739,12.0817351 L13.7664739,26.4618416 C13.7664739,26.7591159 14.0112693,27 14.3133706,27 L18.7922553,27 C19.0943565,27 19.339152,26.7591159 19.339152,26.4618416 L19.339152,12.0817351 C19.339152,11.7844608 19.0943565,11.5435767 18.7922553,11.5435767 Z M18.2453586,25.9236833 L14.8602673,25.9236833 L14.8602673,12.619587 L18.2453586,12.619587 L18.2453586,25.9236833 Z M27.8400321,6.11081282 L23.8227083,2.15767795 C23.6090573,1.94744068 23.2627309,1.94744068 23.0493914,2.15767795 L19.0320676,6.11081282 C18.8757224,6.26465991 18.8290057,6.49634996 18.9134072,6.69739318 C18.9981201,6.8984364 19.1974447,7.02960484 19.4185703,7.02960484 L20.6493994,7.02960484 L20.6493994,26.4618416 C20.6493994,26.7591159 20.8941948,27 21.1962961,27 L25.6751807,27 C25.977282,27 26.2220775,26.7591159 26.2220775,26.4618416 L26.2220775,7.02929837 L27.4529065,7.02929837 C27.6740321,7.02929837 27.8733567,6.89812993 27.9580696,6.69708671 C28.043094,6.49604349 27.9963773,6.26465991 27.8400321,6.11081282 Z M25.6754922,5.9532881 C25.3733909,5.9532881 25.1285955,6.1941722 25.1285955,6.49144647 L25.1285955,25.9236833 L21.7435042,25.9236833 L21.7435042,6.49144647 C21.7435042,6.1941722 21.4987088,5.9532881 21.1966075,5.9532881 L20.7390954,5.9532881 L23.4358941,3.29957891 L26.1326929,5.9532881 L25.6754922,5.9532881 Z" id="listing-on-25-exchanges" fill="#665DCD"/>
    </g>
</svg>