<?xml version="1.0" encoding="UTF-8"?>
<svg width="28px" height="28px" viewBox="0 0 28 28" version="1.1" xmlns="http://www.w3.org/2000/svg" xmlns:xlink="http://www.w3.org/1999/xlink">
    <title>icon/early-stage-funding</title>
    <g id="icon/early-stage-funding" stroke="none" stroke-width="1" fill="none" fill-rule="evenodd">
        <path d="M13.9996807,10.7603837 C9.76710623,10.7603837 6.32382899,14.1186818 6.32382899,18.2467974 C6.32382899,22.374913 9.76710623,25.7332111 13.9996807,25.7332111 C18.2322552,25.7332111 21.6755324,22.374913 21.6755324,18.2467974 C21.6755324,14.1186818 18.2322552,10.7603837 13.9996807,10.7603837 Z M13.9996807,24.639522 C10.3855806,24.639522 7.44519301,21.7717024 7.44519301,18.2467974 C7.44519301,14.7218924 10.3855806,11.8540728 13.9996807,11.8540728 C17.6137808,11.8540728 20.5541684,14.7218924 20.5541684,18.2467974 C20.5541684,21.7717024 17.6137808,24.639522 13.9996807,24.639522 Z M16.473259,19.9433857 C16.473259,20.9875598 15.6606533,21.8651269 14.5712187,22.0965081 L14.5827134,22.5620734 C14.5900572,22.8638344 14.3451579,23.1145234 14.035761,23.1219973 C14.0312909,23.1219973 14.0265015,23.1223088 14.0220314,23.1223088 C13.7187011,23.1223088 13.4693317,22.8862563 13.4616686,22.5885436 L13.4498547,22.1064734 C12.817012,21.983776 12.406718,21.6521191 12.0143044,21.2915007 C11.7892014,21.0844098 11.7786647,20.7381164 11.9913152,20.5185689 C12.2036463,20.2990215 12.5587024,20.2887448 12.7838054,20.4961471 C13.2384814,20.9146887 13.4907245,21.0632336 13.9996807,21.0632336 C14.7452345,21.0632336 15.351895,20.5612328 15.351895,19.9440085 C15.351895,19.3267842 14.7452345,18.8247834 13.9996807,18.8247834 C12.6356525,18.8247834 11.5261024,17.8319928 11.5261024,16.6118693 C11.5261024,15.5670724 12.3393467,14.6891938 13.4294198,14.4584354 L13.416648,13.9318328 C13.4093043,13.6300718 13.6542035,13.3793828 13.9636004,13.3722203 C14.2720393,13.3653692 14.5300297,13.603913 14.5373735,13.905674 L14.5511032,14.4721377 C15.1453112,14.6119629 15.8490373,14.9464225 16.1651394,15.4154133 C16.3353236,15.6676594 16.2634822,16.0067902 16.004534,16.1727743 C15.745905,16.3387584 15.3981928,16.2686901 15.2280086,16.0161326 C15.0763434,15.7909797 14.3761295,15.4926442 13.9993614,15.4926442 C13.2538076,15.4926442 12.6471471,15.994645 12.6471471,16.6118693 C12.6471471,17.2290936 13.2538076,17.7310944 13.9993614,17.7310944 C15.3637089,17.7304715 16.473259,18.7232622 16.473259,19.9433857 Z M14.5603627,8.50916555 L14.5603627,5.35982688 C15.8311568,5.48750698 17.1124876,5.22342716 18.2306587,4.59343486 C19.6729142,3.78126486 20.6908267,2.46615983 21.0969699,0.890089123 C21.170727,0.603587435 20.9979884,0.311791693 20.7067914,0.230823824 C19.1042498,-0.213876623 17.4273125,-0.0117683663 15.9853763,0.800401638 C15.1849037,1.25101897 14.5111913,1.86108072 13.9996807,2.59197144 C13.4881701,1.86108072 12.8144577,1.25101897 12.0139851,0.800401638 C10.5717296,-0.0117683663 8.89511159,-0.213876623 7.29257001,0.230823824 C7.00137297,0.311791693 6.82831508,0.603587435 6.90239152,0.890089123 C7.30853476,2.46615983 8.3264472,3.78126486 9.7687027,4.59343486 C10.704237,5.12003742 11.7534404,5.39127978 12.8154156,5.39127978 C13.0229573,5.39127978 13.2314569,5.38069168 13.439318,5.35982688 L13.439318,8.50916555 C8.18499952,8.79379875 4,13.0523972 4,18.2467974 C4,23.624621 8.4860947,28 14,28 C19.5139053,28 24,23.624621 24,18.2467974 C23.9996807,13.0523972 19.8146812,8.79379875 14.5603627,8.50916555 Z M16.5460583,1.7477257 C17.5556691,1.17939355 18.7057697,0.976973875 19.8379897,1.15977441 C19.4344008,2.20737406 18.6795875,3.07809006 17.6699767,3.64642222 C16.7235863,4.17925308 15.6344711,4.39039236 14.5603627,4.25804104 L14.5603627,3.82548577 C14.9952425,2.95290128 15.6791724,2.23571282 16.5460583,1.7477257 Z M10.3293847,3.64642222 C9.31977394,3.07809006 8.56527986,2.20768548 8.16137169,1.15977441 C9.29359175,0.976973875 10.4440116,1.17908213 11.4533031,1.7477257 C12.320189,2.23602423 13.0041189,2.9532127 13.4389987,3.82548577 L13.4389987,4.25804104 C12.3648903,4.39039236 11.2757751,4.17925308 10.3293847,3.64642222 Z M13.9996807,26.9063109 C9.10393052,26.9063109 5.12104473,23.0217217 5.12104473,18.2467974 C5.12104473,13.4718731 9.10393052,9.58697245 13.9996807,9.58697245 C18.8954309,9.58697245 22.8783167,13.4715616 22.8783167,18.246486 C22.8783167,23.0214103 18.8954309,26.9063109 13.9996807,26.9063109 Z" id="early-stage-funding" fill="#665DCD" fill-rule="nonzero"/>
    </g>
</svg>