<?xml version="1.0" encoding="UTF-8"?>
<svg width="28px" height="28px" viewBox="0 0 28 28" version="1.1" xmlns="http://www.w3.org/2000/svg" xmlns:xlink="http://www.w3.org/1999/xlink">
    <title>icon/listing-on-25-exchanges</title>
    <g id="icon/listing-on-25-exchanges" stroke="none" stroke-width="1" fill="none" fill-rule="evenodd">
        <path d="M1.6287493,16.8591107 C1.80770757,16.7982405 2.00553558,16.8231973 2.16379798,16.9285027 L2.16379798,16.9285027 L5.8160074,19.3633089 C6.09540142,19.5495716 6.17088041,19.928184 5.98461773,20.207578 C5.79774635,20.4863633 5.41974268,20.562451 5.14034866,20.3761884 L5.14034866,20.3761884 L2.91554442,18.8958261 C4.692953,23.485436 9.03908221,26.5654659 14,26.5654659 C19.5148362,26.5654659 24.2748825,22.7549941 25.5835909,17.294941 C25.6627221,16.9662422 25.9914209,16.7653706 26.3140327,16.8445019 C26.6427316,16.9236331 26.8436031,17.2523319 26.7644719,17.5749437 C25.3279362,23.5828282 20.0809287,27.7828691 14,27.7828691 C8.55820797,27.7828691 3.78050935,24.4167494 1.81440328,19.3955701 L1.81440328,19.3955701 L1.18622326,21.2795015 C1.10100504,21.5345474 0.863611432,21.6958534 0.608565474,21.6958534 C0.545260511,21.6958534 0.480129443,21.6861141 0.416215778,21.6642009 C0.0972561557,21.5576781 -0.0750063885,21.213153 0.0315163862,20.8941934 L0.0315163862,20.8941934 L1.24891952,17.241984 C1.30918098,17.062417 1.44979104,16.9205895 1.6287493,16.8591107 Z M14,6 C18.4125,6 22,9.5875 22,14 C22,18.4125 18.4125,22 14,22 C9.5875,22 6,18.4125 6,14 C6,9.5875 9.5875,6 14,6 Z M17.2875,14.5 L10.7125,14.5 C10.771875,16.23125 11.1375,17.840625 11.7625,19.071875 C12.384375,20.296875 13.2,21 14,21 C14.8,21 15.615625,20.296875 16.2375,19.071875 C16.859375,17.840625 17.228125,16.23125 17.2875,14.5 L17.2875,14.5 Z M9.7125,14.5 L7.01875,14.5 C7.2125,17.259375 9.015625,19.58125 11.49375,20.5375 C11.271875,20.240625 11.0625,19.903125 10.871875,19.525 C10.18125,18.15625 9.775,16.3875 9.7125,14.5 L9.7125,14.5 Z M20.98125,14.5 L18.2875,14.5 C18.228125,16.3875 17.821875,18.15625 17.128125,19.525 C16.9375,19.903125 16.728125,20.240625 16.50625,20.5375 C18.984375,19.584375 20.7875,17.259375 20.98125,14.5 L20.98125,14.5 Z M16.50625,7.4625 C16.728125,7.759375 16.9375,8.096875 17.128125,8.475 C17.81875,9.84375 18.225,11.6125 18.2875,13.5 L18.2875,13.5 L20.98125,13.5 C20.7875,10.740625 18.984375,8.415625 16.50625,7.4625 Z M14,7 C13.196875,7 12.384375,7.703125 11.7625,8.928125 C11.140625,10.159375 10.771875,11.76875 10.7125,13.5 L10.7125,13.5 L17.2875,13.5 C17.228125,11.76875 16.8625,10.159375 16.2375,8.928125 C15.615625,7.703125 14.803125,7 14,7 Z M11.49375,7.4625 C9.015625,8.41875 7.2125,10.740625 7.01875,13.5 L7.01875,13.5 L9.7125,13.5 C9.771875,11.6125 10.178125,9.84375 10.871875,8.475 C11.0625,8.096875 11.271875,7.759375 11.49375,7.4625 Z M14,1 C19.4411833,1 24.2194906,4.36611968 26.1855967,9.38729892 L26.1855967,9.38729892 L26.8137767,7.50336757 C26.898995,7.24832161 27.1363886,7.08701569 27.3914345,7.08701569 C27.4547395,7.08701569 27.5198706,7.09675492 27.5837842,7.11866818 C27.9027438,7.22519095 28.0750064,7.56971604 27.9684836,7.88867566 L27.9684836,7.88867566 L26.7510805,11.5408851 C26.690819,11.720452 26.550209,11.8622795 26.3712507,11.9237584 C26.1922924,11.9846285 25.9944644,11.9596718 25.836202,11.8543664 L25.836202,11.8543664 L22.1839926,9.41956011 C21.9045986,9.23329743 21.8291196,8.85468505 22.0153823,8.57529103 C22.2022536,8.29650571 22.5802573,8.22041802 22.8596513,8.4066807 L22.8596513,8.4066807 L25.0844556,9.88704291 C23.307047,5.29743308 18.9609178,2.21740314 14,2.21740314 C8.48516378,2.21740314 3.72511751,6.02787496 2.41640913,11.487928 C2.33727793,11.8166269 2.00857908,12.0174984 1.68596725,11.9383672 C1.3572684,11.859236 1.15639689,11.5305372 1.23552809,11.2079253 C2.67206379,5.20004083 7.91907132,1 14,1 Z" id="listing-on-25-exchanges" fill="#665DCD" fill-rule="nonzero"/>
    </g>
</svg>