<?xml version="1.0" encoding="UTF-8"?>
<svg width="80px" height="80px" viewBox="0 0 80 80" version="1.1" xmlns="http://www.w3.org/2000/svg" xmlns:xlink="http://www.w3.org/1999/xlink">
    <title>icon/mentality</title>
    <defs>
        <linearGradient x1="0.033631596%" y1="0%" x2="99.9663684%" y2="100%" id="linearGradient-1">
            <stop stop-color="#665DCD" offset="0%"></stop>
            <stop stop-color="#5FA4E6" offset="44.7624153%"></stop>
            <stop stop-color="#D2AB67" offset="100%"></stop>
        </linearGradient>
    </defs>
    <g id="icon/mentality" stroke="none" stroke-width="1" fill="none" fill-rule="evenodd">
        <path d="M52.3805067,36.3157875 L52.3805067,30.2660341 C52.3736614,25.0721669 49.1245451,20.4292575 44.2456862,18.6456131 C48.3678767,16.6598516 50.5693408,12.0856585 49.5525321,7.62470703 C48.5356357,3.16358028 44.567531,0 39.9900949,0 C35.4159017,0 31.447797,3.16358028 30.4276577,7.62470703 C29.4107613,12.0858338 31.612313,16.6603775 35.7345035,18.6456131 C30.8556446,20.4294328 27.6099378,25.0719916 27.6031013,30.2660341 L27.6031013,36.3157875 C27.6031013,36.5485991 27.695544,36.7711471 27.8598847,36.9354878 C28.0242254,37.0998285 28.2467734,37.1922712 28.479585,37.1922712 L51.5048119,37.1922712 C51.7376235,37.1922712 51.9601714,37.0998285 52.1245121,36.9354878 C52.2888528,36.7711471 52.3812956,36.5485991 52.3812956,36.3157875 L52.3805067,36.3157875 Z M31.9409023,9.83633836 C31.9374797,6.57687077 33.899322,3.63591735 36.9088164,2.38622688 C39.9183108,1.13653642 43.3865569,1.82815218 45.6911831,4.13235772 C47.9953711,6.43654572 48.6835861,9.90479174 47.4373139,12.9147244 C46.1876235,15.9242189 43.2466701,17.8860523 39.9872025,17.8826385 C35.5465854,17.8723617 31.9515999,14.2773936 31.941345,9.8367766 L31.9409023,9.83633836 Z M50.6275393,35.4393038 L29.3456385,35.4393038 L29.3456385,30.2660341 C29.5099792,24.5106915 34.2244974,19.9331677 39.9835212,19.9331677 C45.7388638,19.9331677 50.4531191,24.5107791 50.617898,30.2660341 L50.6275393,35.4393038 Z M55.1948959,73.0737611 L55.1948959,79.1235163 C55.1948959,79.3563279 55.2873386,79.5788759 55.4516793,79.7432166 C55.61602,79.9075573 55.838568,80 56.0713796,80 L79.0966065,80 C79.3294181,80 79.5519661,79.9075573 79.7163068,79.7432166 C79.8806475,79.5788759 79.9730902,79.3563279 79.9730902,79.1235163 L79.9730902,73.0737611 C79.9662361,67.8798939 76.7171285,63.2369845 71.8382696,61.4533401 C75.9604602,59.4675787 78.1619243,54.8933855 77.1451155,50.4324341 C76.1282191,45.9713073 72.1601145,42.807727 67.5826783,42.807727 C63.0084852,42.807727 59.0403805,45.9713073 58.0202411,50.4324341 C57.0033447,54.8935608 59.2048965,59.4681045 63.327087,61.4533401 C58.4482281,63.2371598 55.2025213,67.8797187 55.1956847,73.0737611 L55.1948959,73.0737611 Z M59.5773144,52.6341611 C59.5773144,49.3781995 61.5391479,46.4405767 64.5486423,45.1943045 C67.5581368,43.9480323 71.0229645,44.6362298 73.3275031,46.9404353 C75.6316911,49.2446233 76.3199061,52.7094511 75.0736339,55.7192961 C73.8273618,58.7287905 70.8898266,60.6907165 67.630359,60.6907165 C65.4870934,60.7008964 63.4293726,59.8552299 61.909287,58.3453289 C60.3891136,56.8319922 59.5332273,54.7777773 59.5332273,52.6345117 L59.5773144,52.6341611 Z M67.6334267,62.4428902 L67.6299997,62.4428902 C73.4812296,62.4771257 78.209158,67.2224435 78.2196758,73.0737611 L78.2196758,78.2436143 L56.9474163,78.2470379 L56.9474163,73.0737698 C56.9542616,67.2020302 61.7167147,62.4464049 67.585299,62.4428902 L67.6334267,62.4428902 Z M0,73.0737611 L0,79.1235163 C0,79.3563279 0.0924427362,79.5788759 0.256783431,79.7432166 C0.421124125,79.9075573 0.643672102,80 0.876483703,80 L23.9017106,80 C24.1345222,80 24.3570702,79.9075573 24.5214109,79.7432166 C24.6857516,79.5788759 24.7781943,79.3563279 24.7781943,79.1235163 L24.7781943,73.0737611 C24.771349,67.8798939 21.5256509,63.2369845 16.646792,61.4533401 C20.7689825,59.4675787 22.9704467,54.8933855 21.9536379,50.4324341 C20.9333232,45.9713073 16.9652186,42.807727 12.3912007,42.807727 C7.81358927,42.807727 3.84548548,45.9713073 2.82876438,50.4324341 C1.81186799,54.8935608 4.01341975,59.4681045 8.13560938,61.4533401 C3.25675137,63.2371598 0.00762540822,67.8797187 0.000788835333,73.0737611 L0,73.0737611 Z M4.38241852,52.6341611 C4.38241852,49.3781995 6.34425199,46.4405767 9.35716472,45.1943045 C12.3666592,43.9480323 15.8314869,44.6362298 18.1325196,46.9404353 C20.4367076,49.2446233 21.1283409,52.7094511 19.8786504,55.7192961 C18.6323782,58.7287905 15.6948431,60.6907165 12.4387938,60.6907165 C10.2955282,60.7008964 8.23780738,59.8552299 6.7177217,58.3453289 C5.19754836,56.8319922 4.34166202,54.7777773 4.33824374,52.6345117 L4.38241852,52.6341611 Z M12.4385308,62.4428902 C18.2897607,62.4771257 23.0176891,67.2224435 23.024701,73.0737611 L23.024701,78.2436143 L1.75244064,78.2470379 L1.75244064,73.0737698 C1.76271215,67.2020302 6.52173994,62.4464049 12.3938302,62.4428902 L12.4385308,62.4428902 Z M39.0991492,44.7554491 L39.0991492,56.8965014 L27.923982,63.5557616 L28.8278119,65.0622618 L39.9854495,58.4099258 L51.143087,65.0622618 L52.046917,63.5557616 L40.8515907,56.8862465 L40.8515907,44.755712 L39.0991492,44.7554491 Z" id="Combined-Shape" fill="url(#linearGradient-1)"></path>
    </g>
</svg>