<?xml version="1.0" encoding="UTF-8"?>
<svg width="80px" height="80px" viewBox="0 0 80 80" version="1.1" xmlns="http://www.w3.org/2000/svg" xmlns:xlink="http://www.w3.org/1999/xlink">
    <title>icon/transparency</title>
    <defs>
        <linearGradient x1="0%" y1="0.505008104%" x2="100%" y2="99.4949919%" id="linearGradient-1">
            <stop stop-color="#665DCD" offset="0%"></stop>
            <stop stop-color="#5FA4E6" offset="44.7624153%"></stop>
            <stop stop-color="#D2AB67" offset="100%"></stop>
        </linearGradient>
    </defs>
    <g id="icon/transparency" stroke="none" stroke-width="1" fill="none" fill-rule="evenodd">
        <path d="M68.7457494,0 C68.961046,0 69.1665637,0.0848125706 69.3198793,0.238136595 C69.473195,0.39146062 69.5612728,0.600226813 69.5612728,0.815531824 L69.561,25.118 L79.1844765,25.1180745 C79.3997732,25.1180745 79.6052908,25.2028871 79.7586065,25.3562111 C79.9119222,25.5095268 80,25.7183013 80,25.9336064 L80,78.7276795 C80,78.9429762 79.9119222,79.1517507 79.7586065,79.3050747 C79.6052908,79.4583904 79.3997732,79.5432113 79.1844765,79.5432113 L11.2542506,79.5949682 C10.8040826,79.5949682 10.4387272,79.2296127 10.4387272,78.7794447 L10.438,54.476 L0.815523473,54.4768862 C0.365355451,54.4768862 0,54.1115307 0,53.6613627 L0,0.815523473 C0,0.365355451 0.365355451,0 0.815523473,0 L68.7457494,0 Z M68.73,26.748 L12.0701416,26.7486204 L12.0701416,77.9639363 L78.3752664,77.9117426 L78.3752664,26.7486204 L68.7608459,26.7489927 C68.7558246,26.749084 68.7507923,26.7491298 68.7457494,26.7491298 L68.73,26.748 Z M73.6481097,63.8492264 C73.9677936,64.1689103 73.9677936,64.6843245 73.6481097,65.0040001 L64.6774851,73.9746239 C64.5241694,74.1279395 64.3153949,74.2127605 64.1000899,74.2127605 C63.7706269,74.2127605 63.4705093,74.0137733 63.3465557,73.7103988 C63.2193369,73.4037591 63.28784,73.054714 63.5227113,72.819851 L72.4933359,63.8492264 C72.8130198,63.5295424 73.3284341,63.5295424 73.6481097,63.8492264 Z M72.3439452,57.1614596 C72.6309768,57.4485245 72.6636291,57.9019578 72.4189788,58.2281304 L57.9024672,72.744642 C57.7524084,72.8979577 57.5468991,72.9860355 57.3316025,72.9893425 C57.0054215,72.9860856 56.711826,72.7870901 56.5878724,72.4837156 C56.4639104,72.1836064 56.5324219,71.8345604 56.7607627,71.6029375 L71.2772743,57.086426 C71.6034804,56.8417673 72.0569136,56.8743862 72.3439452,57.1614596 Z M68.7453819,31.6424126 C69.1955499,31.6424126 69.5609054,32.0077681 69.5609054,32.4579361 L69.5609054,53.6093027 C69.5609054,53.8245993 69.4728276,54.0333739 69.3195119,54.1866979 C69.1661962,54.3400219 68.9606786,54.4248345 68.7453819,54.4248345 L18.5939285,54.4768862 C18.1437605,54.4768862 17.778405,54.1115307 17.778405,53.6613627 C17.778405,53.2111947 18.1437605,52.8458392 18.5939285,52.8458392 L67.9298584,52.8034329 L67.9298584,32.4579361 C67.9298584,32.0077681 68.2919487,31.6424126 68.7453819,31.6424126 Z M67.9302259,1.63057929 L1.63094924,1.63057929 L1.63094924,52.8454801 L10.438,52.845 L10.4387272,25.933598 C10.4387272,25.48343 10.8040826,25.1180745 11.2542506,25.1180745 L67.93,25.118 L67.9302259,1.63057929 Z M23.7384673,12.144958 C24.0581512,12.4646419 24.0581512,12.9800562 23.7384673,13.2997318 L14.7678427,22.2703564 C14.614527,22.423672 14.4057525,22.5084929 14.1904475,22.5084929 C13.8609845,22.5084929 13.560867,22.3095058 13.4369133,22.0061313 C13.3096945,21.6994916 13.3781976,21.3504456 13.613069,21.1155826 L22.5836935,12.144958 C22.9033775,11.8252741 23.4187917,11.8252741 23.7384673,12.144958 Z M22.4334677,5.45718285 C22.7204993,5.74425619 22.7531517,6.1976811 22.5084929,6.52385374 L7.99198139,21.0403653 C7.8419226,21.193681 7.63641329,21.2817588 7.42111663,21.2850741 C7.09494398,21.2818089 6.80134852,21.0828217 6.67739489,20.7794472 C6.55343292,20.4793296 6.62193602,20.130292 6.85028527,19.8986692 L21.3667968,5.38215763 C21.6930029,5.13749891 22.1464361,5.17011785 22.4334677,5.45718285 Z" id="Combined-Shape" fill="url(#linearGradient-1)"></path>
    </g>
</svg>